<!--?xml version="1.0" encoding="utf-8"?-->
<!-- Generator: Adobe Illustrator 18.0.0, SVG Export Plug-In . SVG Version: 6.00 Build 0)  -->

<svg version="1.1" id="_x32_" xmlns="http://www.w3.org/2000/svg" xmlns:xlink="http://www.w3.org/1999/xlink" x="0px" y="0px" viewBox="0 0 512 512" style="width: 128px; height: 128px; opacity: 1;" xml:space="preserve">
<style type="text/css">
	.st0{fill:#4B4B4B;}
</style>
<g>
	<path class="st0" d="M256,0C114.615,0,0,114.615,0,256s114.615,256,256,256s256-114.615,256-256S397.385,0,256,0z M256,448
		c-105.869,0-192-86.131-192-192S150.131,64,256,64s192,86.131,192,192S361.869,448,256,448z" style="fill: rgb(75, 75, 75);"></path>
	<path class="st0" d="M372.432,186c0.084-0.125,0.184-0.238,0.268-0.363c-6.652,2.949-13.713,5.098-21.066,6.436
		c-1.754,0.264-3.52,0.49-5.305,0.627c7.502-4.594,13.53-11.281,17.44-19.215c1.029-1.973,2.025-3.967,2.785-6.062
		c-0.088,0.053-0.184,0.094-0.272,0.146c0.039-0.123,0.11-0.23,0.148-0.354c-8.992,5.332-18.953,9.207-29.556,11.295
		c-8.49-9.047-20.588-14.699-33.975-14.699c-25.709,0-46.549,20.84-46.549,46.545c0,3.348,0.387,6.602,1.057,9.75
		c0.041,0.287,0.064,0.564,0.105,0.853c-34.021-1.717-64.633-16.283-87.131-38.932c-2.988-3.051-5.871-6.219-8.56-9.578
		c-0.014,0.024-0.022,0.047-0.035,0.07c-0.055-0.066-0.117-0.123-0.172-0.19c-4.006,6.875-6.301,14.869-6.301,23.4
		c0,13.328,5.652,25.305,14.631,33.795c1.783,1.756,3.67,3.424,5.734,4.918c-7.502-0.295-14.56-2.357-20.742-5.791
		c-0.002,0.195-0.004,0.389-0.004,0.586c0,18.754,11.174,34.791,27.158,42.164c3.098,1.49,6.324,2.754,9.771,3.558
		c-3.787,0.994-7.754,1.551-11.853,1.551c-2.649,0-5.209-0.31-7.734-0.738c-0.258-0.072-0.543-0.09-0.795-0.172
		c0.012,0.035,0.03,0.066,0.041,0.1c-0.088-0.016-0.184-0.01-0.27-0.026c5.184,16.188,19.004,28.516,36.029,31.59
		c2.365,0.473,4.787,0.766,7.252,0.881c-15.9,12.393-35.89,19.781-57.609,19.781c-3.02,0-5.979-0.244-8.926-0.523
		c-0.68-0.121-1.385-0.166-2.049-0.33c0.129,0.082,0.266,0.152,0.394,0.234c-0.172-0.019-0.351-0.012-0.521-0.031
		c20.598,13.207,45.064,20.912,71.352,20.912c47.303,0,82.695-21.694,104.959-51.446c0.074-0.098,0.156-0.189,0.228-0.287
		c2.129-2.86,4.088-5.809,5.971-8.805c0.387-0.611,0.816-1.195,1.192-1.812c1.736-2.862,3.303-5.795,4.818-8.752
		c0.377-0.736,0.806-1.447,1.17-2.192c1.764-3.6,3.354-7.258,4.789-10.959c0.018-0.043,0.037-0.086,0.055-0.129
		c6.084-15.73,9.254-32.197,9.254-48.054c0-2.02-0.045-4.026-0.135-6.022c7.234-5.223,13.664-11.514,19.152-18.553
		c1.428-1.744,2.842-3.5,4.17-5.324C372.676,185.908,372.551,185.949,372.432,186z" style="fill: rgb(75, 75, 75);"></path>
</g>
</svg>
