<!--?xml version="1.0" encoding="utf-8"?-->
<!-- Generator: Adobe Illustrator 18.0.0, SVG Export Plug-In . SVG Version: 6.00 Build 0)  -->

<svg version="1.1" id="_x32_" xmlns="http://www.w3.org/2000/svg" xmlns:xlink="http://www.w3.org/1999/xlink" x="0px" y="0px" viewBox="0 0 512 512" style="width: 128px; height: 128px; opacity: 1;" xml:space="preserve">
<style type="text/css">
	.st0{fill:#4B4B4B;}
</style>
<g>
	<path class="st0" d="M215.998,185.473v38.846h-45.486v52.675h45.486v135.161h54.394V276.994h45.369l6.791-52.675h-52.16v-33.631
		c0-15.25,4.234-25.644,26.106-25.644l27.893-0.012V117.92c-4.826-0.641-21.383-2.076-40.645-2.076
		C243.529,115.845,215.998,140.392,215.998,185.473z" style="fill: rgb(75, 75, 75);"></path>
	<path class="st0" d="M256,0C114.613,0,0,114.615,0,256s114.613,256,256,256c141.383,0,256-114.615,256-256S397.383,0,256,0z
		 M448,256c0,105.869-86.133,192-192,192c-105.871,0-192-86.131-192-192S150.129,64,256,64C361.867,64,448,150.131,448,256z" style="fill: rgb(75, 75, 75);"></path>
</g>
</svg>
